<?xml version="1.0"?>
<svg version="1.1" xmlns="http://www.w3.org/2000/svg" width="400" height="50" style=""><path fill="#10cc5f" d="M15.8935546875,20.8251953125q0-0.17578125,0.16845703125-0.263671875t0.3662109375-0.1318359375t0.35888671875-0.0439453125l0.1611328125,0q0.5126953125,0,0.73974609375,0.234375t0.54931640625,0.6005859375q2.197265625,3.1787109375,4.0283203125,6.54052734375t3.5302734375,6.80419921875q0.146484375-4.013671875,0.30029296875-8.07861328125t0.38818359375-8.06396484375q0-0.17578125,0.16845703125-0.29296875t0.380859375-0.17578125t0.43212890625-0.0732421875t0.3369140625-0.0146484375q0.17578125,0,0.38818359375,0.0146484375t0.4248046875,0.087890625t0.3515625,0.17578125t0.13916015625,0.2783203125q0.05859375,0.6298828125,0.06591796875,1.26708984375t0.00732421875,1.26708984375q0,4.716796875-0.205078125,9.2431640625t-0.205078125,9.140625l0,1.0546875q0,0.05859375-0.05859375,0.17578125q0.029296875,0.1171875,0.087890625,0.25634765625t0.05859375,0.19775390625q0,0.234375-0.24169921875,0.3515625t-0.52734375,0.18310546875t-0.50537109375,0.06591796875t-0.1611328125,0q-0.7470703125,0-1.259765625-0.41015625t-0.5126953125-0.9814453125q-1.083984375-2.431640625-2.16064453125-4.82666015625t-2.24853515625-4.76806640625q-0.7470703125-1.494140625-1.50146484375-2.99560546875t-1.61865234375-2.90771484375q0.029296875,0.029296875,0.029296875,0.087890625q0.146484375,1.46484375,0.31494140625,2.92236328125t0.25634765625,2.92236328125q0.05859375,1.259765625,0.1318359375,2.548828125t0.234375,2.548828125q0,0.4833984375-0.30029296875,0.615234375t-0.69580078125,0.1318359375q-0.3369140625,0-0.63720703125-0.087890625t-0.35888671875-0.439453125q0-1.34765625-0.1025390625-2.86376953125t-0.1904296875-3.05419921875q-0.146484375-2.0361328125-0.38818359375-4.13818359375t-0.24169921875-4.10888671875q0-0.087890625,0.0146484375-0.18310546875t0.0146484375-0.21240234375q-0.087890625-0.146484375-0.19775390625-0.3076171875t-0.10986328125-0.29296875z M32.163134765625,34.1845703125q0-1.34765625,0.31494140625-2.64404296875t0.53466796875-2.58544921875q0.05859375-0.3369140625,0.46142578125-0.41748046875t0.68115234375-0.08056640625q0.4833984375,0,0.7763671875,0.146484375q0.1171875,0.05859375,0.2197265625,0.1318359375t0.1025390625,0.1904296875q0,1.259765625-0.30029296875,2.4609375t-0.30029296875,2.548828125q0,0.4541015625,0.06591796875,0.85693359375t0.12451171875,0.79833984375l0.087890625,0.4248046875q0,0.1171875,0.0146484375,0.205078125t0.0439453125,0.205078125q0,0.263671875-0.37353515625,0.35888671875t-0.65185546875,0.09521484375q-0.4248046875,0-0.78369140625-0.16845703125t-0.56396484375-0.57861328125l-0.205078125-0.4248046875q-0.17578125-0.3369140625-0.17578125-0.75439453125t-0.0732421875-0.76904296875z M33.100634765625,25.3662109375l0-0.2783203125q0-0.6884765625,0.34423828125-1.23046875t1.03271484375-0.5419921875q0.087890625,0,0.16845703125,0.0146484375t0.16845703125,0.0146484375q0.17578125,0.029296875,0.46142578125,0.13916015625t0.28564453125,0.34423828125l0,0.029296875q-0.05859375,0.1171875-0.0732421875,0.24169921875t-0.0732421875,0.21240234375l0.029296875-0.029296875q-0.17578125,0.4541015625-0.28564453125,0.732421875t-0.24169921875,0.44677734375t-0.32958984375,0.24169921875t-0.56396484375,0.0732421875q-0.05859375,0-0.205078125-0.0146484375t-0.31494140625-0.05859375t-0.28564453125-0.1171875t-0.1171875-0.2197265625z M38.55966796875,40.4833984375l0.3076171875-0.3662109375q-0.05859375-2.4609375-0.1318359375-4.9072265625t-0.0732421875-4.86328125q0-3.0029296875,0.35888671875-5.80810546875t0.71044921875-5.74951171875q0.029296875-0.17578125,0.16845703125-0.28564453125t0.34423828125-0.18310546875t0.41748046875-0.1025390625t0.38818359375-0.029296875q0.234375,0,0.5859375,0.087890625t0.703125,0.5126953125q0,0.146484375,0.02197265625,0.25634765625t0.02197265625,0.25634765625q0,1.11328125-0.30029296875,2.3876953125t-0.40283203125,2.4462890625q-0.1171875,1.435546875-0.1611328125,2.841796875t-0.0439453125,2.8564453125l0.029296875,1.2890625q0.29296875-0.3662109375,0.8349609375-0.9375t1.171875-1.10595703125t1.259765625-0.91552734375t1.142578125-0.380859375q0.7763671875,0,1.07666015625,0.439453125t0.30029296875,1.1572265625q0,0.6591796875-0.28564453125,1.376953125t-0.7470703125,1.39892578125t-1.04736328125,1.22314453125t-1.1572265625,0.8056640625q0.7763671875,0.966796875,1.58935546875,1.845703125t1.77978515625,1.6552734375l0,0.3369140625q-0.029296875,0.146484375-0.18310546875,0.2197265625t-0.3369140625,0.1171875t-0.35888671875,0.06591796875t-0.29296875,0.02197265625q-0.7177734375,0-1.38427734375-0.4248046875t-1.2451171875-1.0400390625t-1.09130859375-1.3037109375t-0.9375-1.201171875q0.087890625,1.6845703125,0.19775390625,3.36181640625t0.10986328125,3.36181640625q0,0.205078125-0.18310546875,0.34423828125t-0.4248046875,0.21240234375t-0.49072265625,0.1025390625t-0.41015625,0.029296875q-0.8642578125,0-1.22314453125-0.31494140625t-0.60791015625-1.09130859375z M41.56259765625,33.583984375q0.3662109375,0,0.87158203125-0.31494140625t1.04736328125-0.78369140625t1.0107421875-0.98876953125t0.75439453125-0.98876953125t0.28564453125-0.75439453125t-0.3955078125-0.25634765625q-0.146484375,0-0.6005859375,0.4248046875t-1.0107421875,1.0400390625t-1.11328125,1.3330078125t-0.849609375,1.2890625z M50.420068359375,30.7568359375q0-0.6005859375,0.3515625-1.03271484375t0.85693359375-0.703125t1.10595703125-0.40283203125t1.11328125-0.1318359375q0.3955078125,0,1.0546875,0.1171875t1.2890625,0.3515625t1.09130859375,0.615234375t0.46142578125,0.8935546875q0,0.234375-0.17578125,0.41748046875t-0.3662109375,0.18310546875q-0.3955078125,0-0.7177734375-0.25634765625t-0.66650390625-0.5419921875t-0.75439453125-0.5419921875t-0.9228515625-0.25634765625t-0.93017578125,0.32958984375t-0.41748046875,0.87158203125q0,0.8935546875,0.6298828125,1.75048828125t1.38427734375,1.8017578125t1.38427734375,1.98486328125t0.6298828125,2.2998046875q0,0.5419921875-0.22705078125,0.91552734375t-0.6005859375,0.60791015625t-0.84228515625,0.35888671875t-0.908203125,0.12451171875q-0.4833984375,0-1.1279296875-0.22705078125t-1.2158203125-0.6005859375t-0.95947265625-0.87158203125t-0.38818359375-1.0400390625q0-0.263671875,0.37353515625-0.3369140625t0.54931640625-0.0732421875q0.087890625,0,0.27099609375,0.05859375t0.35888671875,0.1318359375t0.31494140625,0.1611328125t0.10986328125,0.1904296875q0.146484375,0.17578125,0.44677734375,0.52001953125t0.6005859375,0.556640625t0.52734375,0.15380859375t0.22705078125-0.6591796875q0-1.142578125-0.615234375-2.10205078125t-1.34033203125-1.875t-1.34033203125-1.81640625t-0.615234375-1.92626953125z M60.7423828125,38.9453125q0.6298828125-2.8564453125,1.81640625-5.4638671875t2.4462890625-5.21484375q-0.6884765625-2.314453125-1.435546875-4.73876953125t-1.8017578125-4.59228515625q-0.1171875-0.087890625-0.24169921875-0.2197265625t-0.12451171875-0.29296875q0-0.205078125,0.16845703125-0.3369140625t0.3955078125-0.21240234375t0.46875-0.10986328125t0.38818359375-0.029296875q1.23046875,0,1.7724609375,1.142578125q0.6005859375,1.2890625,1.12060546875,2.64404296875t1.00341796875,2.70263671875q0.17578125-0.3955078125,0.41748046875-1.0693359375t0.5126953125-1.4208984375t0.6005859375-1.51611328125t0.7177734375-1.39892578125t0.85693359375-1.01806640625t1.0107421875-0.38818359375t0.703125,0.1025390625t0.1318359375,0.28564453125t-0.19775390625,0.40283203125t-0.25634765625,0.46875q-0.263671875,0.6298828125-0.63720703125,1.70654296875t-0.82763671875,2.32177734375t-0.94482421875,2.5341796875t-1.00341796875,2.314453125q1.0546875,3.45703125,1.7431640625,6.97998046875t1.58203125,7.02392578125q0.087890625,0.3369140625,0.27099609375,0.71044921875t0.18310546875,0.71044921875q0,0.205078125-0.19775390625,0.322265625t-0.4541015625,0.19775390625t-0.50537109375,0.10986328125t-0.41015625,0.029296875q-0.7763671875,0-1.20849609375-0.34423828125t-0.6884765625-0.87158203125t-0.3662109375-1.1572265625t-0.19775390625-1.23046875q-0.3662109375-2.0654296875-0.76904296875-4.12353515625t-0.90087890625-4.12353515625q-0.4541015625,1.025390625-0.76904296875,1.904296875t-0.5859375,1.72119140625t-0.52734375,1.69921875t-0.57861328125,1.83837890625q-0.146484375,0.4248046875-0.556640625,0.5126953125t-0.76171875,0.087890625q-0.3662109375,0-0.78369140625-0.087890625t-0.57861328125-0.5126953125z M73.950439453125,39.1357421875q0-0.087890625,0.21240234375-0.46875t0.5419921875-0.91552734375t0.7177734375-1.16455078125t0.7763671875-1.2451171875t0.72509765625-1.11328125t0.5126953125-0.76171875q-0.17578125-0.3369140625-0.6005859375-0.9228515625t-0.87158203125-1.1865234375t-0.7763671875-1.1572265625t-0.32958984375-0.8203125q0-0.4248046875,0.41748046875-0.556640625t0.81298828125-0.1318359375q0.4248046875,0,0.6005859375,0.0732421875t0.46875,0.41015625q-0.029296875,0.087890625,0.21240234375,0.46142578125t0.5712890625,0.791015625t0.6298828125,0.76171875t0.35888671875,0.44677734375l0.64453125-0.64453125t0.79833984375-0.73974609375t0.87158203125-0.6005859375t0.8349609375-0.24169921875q0.146484375,0,0.44677734375,0.0732421875t0.30029296875,0.29296875q-0.4248046875,0.4541015625-0.7763671875,0.7470703125t-0.7177734375,0.59326171875t-0.732421875,0.673828125t-0.849609375,0.94482421875q0.205078125,0.3369140625,0.7763671875,1.11328125t1.1572265625,1.64794921875t1.03271484375,1.640625t0.44677734375,1.06201171875q0,0.17578125-0.18310546875,0.28564453125t-0.41748046875,0.18310546875t-0.47607421875,0.1025390625t-0.35888671875,0.029296875q-0.3369140625,0-0.76904296875-0.087890625t-0.62255859375-0.3955078125q-0.5712890625-0.8349609375-0.98876953125-1.75048828125t-1.01806640625-1.75048828125q-0.1171875,0.205078125-0.47607421875,0.966796875t-0.85693359375,1.60400390625t-1.04736328125,1.50146484375t-1.00341796875,0.6591796875l-0.029296875,0q-0.205078125,0-0.5859375-0.0732421875t-0.380859375-0.3369140625z M85.41533203125,38.9453125q0.6298828125-2.8564453125,1.81640625-5.4638671875t2.4462890625-5.21484375q-0.6884765625-2.314453125-1.435546875-4.73876953125t-1.8017578125-4.59228515625q-0.1171875-0.087890625-0.24169921875-0.2197265625t-0.12451171875-0.29296875q0-0.205078125,0.16845703125-0.3369140625t0.3955078125-0.21240234375t0.46875-0.10986328125t0.38818359375-0.029296875q1.23046875,0,1.7724609375,1.142578125q0.6005859375,1.2890625,1.12060546875,2.64404296875t1.00341796875,2.70263671875q0.17578125-0.3955078125,0.41748046875-1.0693359375t0.5126953125-1.4208984375t0.6005859375-1.51611328125t0.7177734375-1.39892578125t0.85693359375-1.01806640625t1.0107421875-0.38818359375t0.703125,0.1025390625t0.1318359375,0.28564453125t-0.19775390625,0.40283203125t-0.25634765625,0.46875q-0.263671875,0.6298828125-0.63720703125,1.70654296875t-0.82763671875,2.32177734375t-0.94482421875,2.5341796875t-1.00341796875,2.314453125q1.0546875,3.45703125,1.7431640625,6.97998046875t1.58203125,7.02392578125q0.087890625,0.3369140625,0.27099609375,0.71044921875t0.18310546875,0.71044921875q0,0.205078125-0.19775390625,0.322265625t-0.4541015625,0.19775390625t-0.50537109375,0.10986328125t-0.41015625,0.029296875q-0.7763671875,0-1.20849609375-0.34423828125t-0.6884765625-0.87158203125t-0.3662109375-1.1572265625t-0.19775390625-1.23046875q-0.3662109375-2.0654296875-0.76904296875-4.12353515625t-0.90087890625-4.12353515625q-0.4541015625,1.025390625-0.76904296875,1.904296875t-0.5859375,1.72119140625t-0.52734375,1.69921875t-0.57861328125,1.83837890625q-0.146484375,0.4248046875-0.556640625,0.5126953125t-0.76171875,0.087890625q-0.3662109375,0-0.78369140625-0.087890625t-0.57861328125-0.5126953125z"/><path fill="#" d=""/></svg>
